<svg width="50" height="61" viewBox="0 0 50 61" fill="none" xmlns="http://www.w3.org/2000/svg">
<path d="M48.7111 13.9484L38.4954 2.3609C37.6212 1.37187 36.4153 0.778458 35.1008 0.695508L27.8331 0.23609L27.7565 0L26.5378 0.382848L30.5386 12.9977L23.4941 22.939L28.9753 34.2458L23.8961 44.136L26.4867 59.7563L27.1184 59.6542L38.9804 60.4007C43.5426 60.6879 47.4924 57.2103 47.7795 52.6417L49.9809 17.6876C50.0766 16.3093 49.6235 14.9821 48.7111 13.9484ZM43.9638 52.3992C43.8106 54.8558 41.6794 56.7318 39.2228 56.5786L27.1312 55.8129L25.8614 48.1559L26.7101 48.207L26.9525 44.3849L25.2616 44.2764L26.8696 41.1371L39.8928 41.9602L40.1353 38.1381L28.7838 37.4234L30.3918 34.2905L40.3395 34.9158L40.5819 31.0937L28.5095 30.3344L26.8887 26.9972L40.7797 27.8714L41.0222 24.0493L24.9872 23.0411L31.9615 13.221L29.071 4.14752L34.8328 4.51123L34.2075 14.4079C34.1309 15.6266 35.0562 16.673 36.2685 16.7496L46.1588 17.3749C46.1588 17.4005 46.1651 17.4196 46.1588 17.4451L43.9638 52.3992Z" fill="#898989"/>
<path d="M24.9425 34.0097L18.2681 23.5005L24.0811 12.9339L18.4021 0.274414L17.8215 0.536027L7.86743 1.04649C3.30515 1.28258 -0.223435 5.18763 0.0126547 9.75629L2.20127 52.4503C2.43736 57.0189 6.34242 60.5411 10.9111 60.3114L23.9215 59.6414L23.9598 59.7818L25.1849 59.4309L20.9417 44.6146L24.9425 34.0097ZM10.7133 56.4893C8.25666 56.6169 6.15099 54.7155 6.02337 52.2588L3.83476 9.55849C3.70714 7.10188 5.60862 4.99621 8.06523 4.86859L18.8233 4.31985L22.6581 12.8765L16.7878 23.5516L16.7942 23.5644L9.65405 23.9281L9.85186 27.7502L19.1551 27.2716L21.1459 30.4046L10.0178 30.9725L10.2092 34.801L23.5004 34.1182L23.5259 34.1565L22.3008 37.4171L10.3751 38.0296L10.5729 41.8517L20.8268 41.3285L19.6081 44.5636L19.6273 44.6274L10.7388 45.0804L10.9366 48.9025L20.7056 48.3985L22.8432 55.8576L10.7133 56.4893Z" fill="#898989"/>
</svg>
