<svg width="50" height="44" viewBox="0 0 50 44" fill="none" xmlns="http://www.w3.org/2000/svg">
<g clip-path="url(#clip0_21125_111)">
<path d="M1.13736 35.5971V8.40291C1.13736 6.47794 1.89709 4.63181 3.24944 3.27065C4.60178 1.9095 6.43595 1.14481 8.34846 1.14481V28.3357C6.43423 28.3357 4.59841 29.1011 3.24485 30.4635C1.89128 31.8259 1.13086 33.6737 1.13086 35.6004C1.13086 37.5271 1.89128 39.3748 3.24485 40.7372C4.59841 42.0996 6.43423 42.865 8.34846 42.865H48.8593L48.7618 6.88522H8.4427" fill="white"/>
<path d="M50 44H8.34845C6.13478 43.9974 4.01248 43.1114 2.44687 41.5362C0.881268 39.961 0.000143981 37.8252 -0.0032959 35.5971V8.40292C0.00358096 6.17739 0.886326 4.04529 2.45165 2.47344C4.01698 0.901587 6.13733 0.0180772 8.34845 0.0163574H9.48585V5.75023H49.896L50 44ZM2.27475 35.5971C2.27733 37.2176 2.91806 38.7711 4.05654 39.917C5.19502 41.0629 6.7384 41.7078 8.34845 41.7104H47.7187L47.6277 8.02022H9.4891V29.4773H8.34845C6.73727 29.4799 5.19292 30.1257 4.05425 31.273C2.91558 32.4203 2.27561 33.9754 2.27475 35.5971ZM7.21431 2.39756C5.82603 2.66508 4.57362 3.41083 3.67223 4.50671C2.77083 5.6026 2.27672 6.98021 2.27475 8.40292V29.8371C3.58115 28.4379 5.32454 27.5316 7.21431 27.2694V2.39756Z" fill="#009A67"/>
<path d="M17.9352 20.901L27.6843 13.1555C27.9033 12.9808 28.1753 12.8874 28.4547 12.891C28.7341 12.8946 29.0037 12.9949 29.2182 13.1751L38.4083 20.901V35.0149H17.9352V20.901Z" fill="white"/>
<path d="M39.5457 36.1499H16.7977V20.3449L26.9628 12.256C27.3884 11.9212 27.9147 11.7427 28.4548 11.7498C28.9949 11.7569 29.5164 11.9494 29.9331 12.2953L39.5457 20.3646V36.1499ZM19.0725 33.8602H37.2709V21.4309L28.4967 14.0485C28.4826 14.0365 28.4647 14.0299 28.4463 14.0299C28.4279 14.0299 28.41 14.0365 28.3959 14.0485L19.0725 21.4538V33.8602Z" fill="#009A67"/>
<path d="M38.7788 27.5998H17.2722V29.8894H38.7788V27.5998Z" fill="#009A67"/>
<path d="M21.2149 28.261L19.1471 29.2152L21.998 35.474L24.0658 34.5198L21.2149 28.261Z" fill="#009A67"/>
<path d="M30.2279 28.4057L28.16 29.3599L31.0109 35.6187L33.0787 34.6645L30.2279 28.4057Z" fill="#009A67"/>
<path d="M34.6798 28.2926L32.6119 29.2468L35.4628 35.5056L37.5306 34.5514L34.6798 28.2926Z" fill="#009A67"/>
<path d="M25.8284 28.3677L23.7606 29.3219L26.6115 35.5807L28.6793 34.6265L25.8284 28.3677Z" fill="#009A67"/>
</g>
<defs>
<clipPath id="clip0_21125_111">
<rect width="50" height="44" fill="white"/>
</clipPath>
</defs>
</svg>
