<svg width="101" height="81" viewBox="0 0 101 81" fill="none" xmlns="http://www.w3.org/2000/svg">
<g clip-path="url(#clip0_21126_990)">
<path d="M93.9036 40.3824C95.4902 38.1607 97.0119 36.0566 98.5336 33.9264C98.2734 33.6912 98.0914 33.5213 97.8963 33.3645C95.4512 31.2473 93.0192 29.1041 90.5481 27.0261C90.0409 26.5949 89.9889 26.2028 90.0929 25.6016C90.366 24.0465 90.5871 22.4782 90.7952 20.923C90.8212 20.6747 90.7172 20.2957 90.5481 20.1389C88.3502 18.2178 68.1785 1.16312 66.7999 0C65.7334 2.36544 61.7797 10.1805 61.7928 10.1936C60.8694 11.4482 57.2798 18.7406 45.3797 24.2294C43.0517 25.3011 40.5156 25.6801 37.9665 25.9153C37.7064 25.9414 37.3943 25.7715 37.1602 25.6147C34.7411 24.0203 32.062 23.2493 29.2137 22.9356C25.169 22.4782 21.2543 23.1839 17.3526 24.0857L11.097 25.9676C8.22272 27.1176 5.37449 28.3199 2.50026 29.4831C2.05807 29.666 1.915 29.9535 1.902 30.4109C1.81096 33.4298 1.70692 36.4356 1.60287 39.4545C1.49883 42.395 1.39478 45.3354 1.30374 48.2759C1.14767 52.7715 0.991608 57.2672 0.861552 61.7759C0.783518 64.3635 0.71849 66.9511 0.666468 69.5518C0.640457 70.6888 0.666468 71.8388 0.666468 72.9627C3.91787 71.4076 7.20828 69.8262 10.4987 68.258C10.5117 68.2711 10.5117 68.2841 10.5247 68.3103L13.0868 67.1994C13.0868 67.1863 13.0738 67.1864 13.0738 67.1733C13.503 66.9903 13.9192 66.8204 14.3484 66.6375C15.6099 66.1147 16.0001 65.8533 17.3657 65.2783C17.3657 67.5915 17.9639 69.8262 17.9639 72.0479C17.9639 72.9497 18.081 73.577 17.6648 74.4656L18.224 79.6539C18.6662 79.667 18.6792 81 18.7052 81.0131L23.1922 80.817L23.1791 80.804C24.4407 80.7517 25.6762 80.6994 26.8857 80.6602C28.4594 80.5949 30.0201 80.5295 31.5678 80.4773C35.5865 80.3204 39.6182 80.1767 43.6369 80.0329C46.3551 79.9284 49.0863 79.8238 51.8045 79.7323C56.4605 79.5755 61.1035 79.4318 65.7595 79.2749C68.5427 79.1834 71.3259 79.092 74.1221 78.9874L74.9804 78.9613C75.3446 78.9482 75.7217 78.909 76.1249 78.8829C76.1119 78.8959 76.0989 78.909 76.0859 78.9221L80.5468 78.7522C80.6899 78.713 80.8459 78.6999 81.015 78.713C82.0295 78.7522 83.6552 78.5954 84.7086 78.5954C84.7086 77.3016 84.6696 74.8185 84.7086 73.6684V67.0687C84.8387 64.0107 82.5367 61.7759 81.7433 59.136C81.6523 58.8354 81.5352 58.5349 81.4182 58.2081C83.0829 57.5286 84.7086 56.8751 86.3473 56.2086L92.8761 52.8892C95.7113 51.4385 98.2474 49.5174 100.679 47.348C98.3645 44.9695 96.1015 42.6433 93.9036 40.3824ZM54.8088 20.0213C60.3231 15.3558 64.1598 9.50097 66.8909 2.86205C66.982 2.61375 67.112 2.36544 67.2551 2.05179C69.1149 3.60697 70.9227 5.10987 72.7305 6.67812C74.8244 8.49468 76.9053 10.3243 79.0512 12.0755C82.3806 14.7938 85.606 17.6428 88.9354 20.348C89.4817 20.7924 89.5207 21.302 89.4426 21.8771C88.8444 26.3335 87.7649 30.6592 86.0482 34.8282C83.1089 41.9768 78.713 48.0537 72.8865 53.0983C67.7363 57.5547 62.5341 59.9593 55.8492 61.4753C50.3868 50.5368 44.9375 39.5852 39.4491 28.5682C39.02 27.7188 39.5532 26.6863 40.4896 26.5687C46.056 25.8107 50.3999 23.7459 54.8088 20.0213ZM2.53927 70.6234C2.34419 70.7149 2.14911 70.8064 1.915 70.9109C1.915 69.8132 1.88899 68.7807 1.915 67.7614C2.00604 64.7686 2.11009 61.7759 2.21413 58.7962C2.31818 55.8035 2.42222 52.8238 2.52627 49.8311C2.63031 46.8122 2.72135 43.8064 2.8254 40.7875C2.92944 37.8209 3.04649 34.8674 3.12452 31.9008C3.15054 30.9729 3.39764 30.424 4.34705 30.0058C9.39322 27.7972 14.5174 25.8369 19.9408 24.8175C22.2818 24.3732 24.6878 24.0987 27.0548 24.0857C30.3712 24.0595 33.5966 24.7522 36.4188 26.6733C36.757 26.9085 37.0821 27.2352 37.2642 27.6012C42.8696 38.8141 48.462 50.0402 54.0544 61.2924C52.975 60.7565 51.9605 60.1684 50.8811 59.711C47.4086 58.2081 43.754 57.8814 40.0214 58.0252C34.2079 58.2473 28.7195 59.9332 23.2832 61.8151C16.1561 64.259 9.30218 67.3301 2.53927 70.6234ZM83.343 76.5958C81.7043 76.6612 80.0916 76.7135 78.4659 76.7657C72.9125 76.9356 67.3591 77.1055 61.8058 77.2754C58.9055 77.3669 56.0053 77.4714 53.105 77.576C48.8002 77.7197 44.4953 77.8635 40.2035 78.0334C36.4579 78.1772 32.6992 78.3209 28.9536 78.4908C25.7803 78.6346 22.6069 78.8045 19.3945 78.9613C19.2385 77.4714 19.0694 75.9555 18.9003 74.3611C19.6806 74.2957 20.435 74.2173 21.2023 74.1912C24.6488 74.0605 28.1083 73.9429 31.5548 73.8122C35.3524 73.6684 39.15 73.5116 42.9607 73.3679C48.1109 73.1718 53.2611 72.9758 58.4113 72.7667C63.5095 72.5707 68.6077 72.3616 73.7189 72.1525C76.6972 72.0349 79.6624 71.8911 82.6407 71.7735C82.8618 71.7604 83.0829 71.7735 83.369 71.7735C83.343 73.4201 83.343 74.9884 83.343 76.5958ZM83.343 65.6834C83.343 67.3562 83.343 68.9768 83.343 70.728C61.8838 70.728 40.5156 70.728 19.0954 70.728C18.9913 69.2381 18.8873 67.696 18.7703 66.0363C40.3075 65.9056 61.8448 65.788 83.343 65.6834ZM73.4588 59.2014C69.8042 60.1162 66.0846 60.7696 62.378 61.4622C60.7003 61.7759 58.9835 61.8935 57.2928 62.1157C64.0167 60.2861 70.4545 58.5349 76.398 54.8364C82.3546 51.1249 88.2721 47.2435 92.8501 41.8199C95.0741 44.12 96.5567 44.9564 98.8717 47.3349C97.207 48.4981 95.6203 49.7265 93.9426 50.7851C87.6089 54.7972 80.6769 57.3848 73.4588 59.2014Z" fill="#009A67"/>
<path d="M8.5611 33.0247V61.4884C8.5611 61.4884 34.4162 49.1515 43.3511 53.4642" fill="#009A67"/>
<path d="M14.7908 34.8281V51.8698C14.7908 51.8698 33.2587 43.4274 40.997 47.0082" stroke="white" stroke-miterlimit="10" stroke-dasharray="2 2"/>
<path d="M17.4569 34.3315L29.8252 30.7114L35.8728 45.9757" stroke="#009A67" stroke-miterlimit="10" stroke-dasharray="2 2"/>
<path d="M73.563 30.3457C70.6238 29.2609 68.855 29.7184 65.7857 28.8427C65.1484 28.6598 64.6152 28.4899 64.5111 27.6796C64.4461 27.17 64.0169 26.7518 63.6138 26.4381C62.3002 25.4318 60.6355 25.8369 58.7757 26.9086C58.4635 26.5688 58.2034 26.1637 57.8263 25.9154C57.6572 25.7977 57.254 25.9546 56.9549 25.9938C56.9289 26.2551 56.7858 26.608 56.8769 26.7779C57.111 27.17 57.4751 27.4705 57.7873 27.8103C57.5271 28.2285 57.306 28.5552 57.111 28.9081C55.9925 30.9337 56.4087 33.0509 58.1644 33.6651C58.7887 33.8873 59.3999 34.2663 59.452 34.9197C59.478 35.3248 59.608 35.6908 59.6861 36.0698C60.1023 38.2 60.6355 40.3694 61.3638 42.957C61.6239 43.8979 62.0921 45.3616 63.0025 45.6883C64.186 46.1196 65.6036 46.4333 65.6556 45.6622C65.7207 44.7082 63.3537 33.8611 63.2886 32.8026C67.7625 33.5083 70.6368 32.9725 74.8766 33.639C75.1757 33.6912 75.4619 33.7827 75.787 33.7435C76.4763 33.6782 76.7884 33.1424 76.4633 32.8026C75.5789 31.8878 74.7596 30.79 73.563 30.3457ZM61.5069 30.7246C60.8566 31.3258 59.9592 31.4304 59.517 30.9468C59.0748 30.4633 59.2439 29.5746 59.8942 28.9734C60.5444 28.3723 61.4418 28.2677 61.884 28.7513C62.3392 29.2217 62.1701 30.1104 61.5069 30.7246Z" fill="#009A67"/>
<path d="M79.6497 25.4709C79.6497 25.4709 80.1829 41.1142 58.4896 51.3732" stroke="#009A67" stroke-miterlimit="10" stroke-dasharray="2 2"/>
</g>
<defs>
<clipPath id="clip0_21126_990">
<rect width="100" height="81" fill="white" transform="translate(0.666687)"/>
</clipPath>
</defs>
</svg>
