<svg width="12" height="19" viewBox="0 0 12 19" fill="none" xmlns="http://www.w3.org/2000/svg">
<path d="M9.82362 10.4389L4.35014 15.9251L2.24495 13.8199C2.13057 13.6864 1.98983 13.5779 1.83153 13.5014C1.67325 13.4248 1.50082 13.3817 1.32511 13.3749C1.1494 13.3682 0.974184 13.3978 0.810464 13.4619C0.646732 13.526 0.498029 13.6233 0.373696 13.7476C0.249362 13.872 0.152064 14.0208 0.0879136 14.1845C0.0237756 14.3481 -0.00583682 14.5233 0.000950808 14.6991C0.00773844 14.8748 0.0507724 15.0472 0.127363 15.2055C0.203941 15.3637 0.312415 15.5046 0.445973 15.6189L3.44427 18.63C3.56349 18.7482 3.70488 18.8418 3.86033 18.9053C4.01573 18.9687 4.18223 19.001 4.35014 19C4.6848 18.9986 5.00555 18.8656 5.24325 18.63L11.6226 12.2506C11.7421 12.132 11.8371 11.9908 11.9019 11.8354C11.9667 11.6799 12 11.5132 12 11.3447C12 11.1763 11.9667 11.0096 11.9019 10.8541C11.8371 10.6986 11.7421 10.5575 11.6226 10.4389C11.3835 10.2013 11.0602 10.0679 10.7231 10.0679C10.386 10.0679 10.0627 10.2013 9.82362 10.4389Z" fill="#009A67"/>
</svg>
