<svg width="40" height="40" viewBox="0 0 40 40" fill="none" xmlns="http://www.w3.org/2000/svg">
<path opacity="0.2" d="M40 20C40 8.95431 31.0457 0 20 0C8.95431 0 0 8.95431 0 20C0 31.0457 8.95431 40 20 40C31.0457 40 40 31.0457 40 20Z" fill="#009A67"/>
<path d="M20.0012 6.66699H20.0006C12.6369 6.66699 6.66748 12.6364 6.66748 20.0001V20.0007C6.66748 27.3644 12.6369 33.3339 20.0006 33.3339H20.0012C27.3649 33.3339 33.3343 27.3644 33.3343 20.0007V20.0001C33.3343 12.6364 27.3649 6.66699 20.0012 6.66699Z" fill="#009A67"/>
<path d="M13.3325 20.0002L17.7771 24.4448L26.6662 15.5557" stroke="white" stroke-width="3"/>
</svg>
