<svg width="50" height="64" viewBox="0 0 50 64" fill="none" xmlns="http://www.w3.org/2000/svg">
<path d="M19.9137 16.4962L28.374 12.3166C29.3178 11.8515 30.0863 10.6111 30.0863 9.55943V8.30555C30.0863 7.25392 29.3178 6.77529 28.374 7.24043L19.9137 11.42C18.9699 11.8852 18.2014 13.1256 18.2014 14.1772V15.4311C18.2014 16.4827 18.9699 16.9613 19.9137 16.4962Z" fill="#898989"/>
<path d="M19.9137 25.3536L28.374 21.174C29.3178 20.7089 30.0863 19.4685 30.0863 18.4169V17.163C30.0863 16.1113 29.3178 15.6327 28.374 16.0979L19.9137 20.2774C18.9699 20.7426 18.2014 21.983 18.2014 23.0346V24.2885C18.2014 25.3401 18.9699 25.8188 19.9137 25.3536Z" fill="#898989"/>
<path d="M28.374 24.9563L20.5407 28.8257C19.5969 29.2909 19.3407 30.356 19.9744 31.1987L23.0012 35.2232C23.6349 36.0659 24.6663 36.0659 25.3 35.2232L28.947 30.3695C29.5807 29.5268 30.093 27.9831 30.093 26.9314V26.0214C30.0863 24.9697 29.3178 24.4911 28.374 24.9563Z" fill="#898989"/>
<path d="M19.9137 7.42888L28.374 3.24929C29.3178 2.78414 30.0863 1.86059 30.0863 1.19995C30.0863 0.539301 29.2234 0 28.1785 0H20.1092C19.0576 0 18.2014 0.862882 18.2014 1.90778V6.36376C18.2014 7.4154 18.9699 7.89403 19.9137 7.42888Z" fill="#898989"/>
<path d="M42.2475 8.93848H33.3491V10.9609V30.8139L27.6931 38.236C25.9337 40.5483 22.4417 40.4876 20.7564 38.1214L15.2757 30.4296V10.9609V8.93848H7.75246C3.47849 8.93848 0 12.417 0 16.6909V56.0599C0 60.3339 3.47849 63.8124 7.75246 63.8124H42.2475C46.5215 63.8124 50 60.3339 50 56.0599V16.6909C50.0067 12.417 46.5282 8.93848 42.2475 8.93848ZM42.2475 59.7744H7.75246C5.70311 59.7744 4.04476 58.1093 4.04476 56.0667V49.2715C6.57948 48.0918 11.0894 46.7233 15.269 49.2513C24.1472 54.6241 28.3942 48.085 33.9895 45.2739C39.3892 42.5639 43.6227 45.5166 45.962 47.9772V56.0667C45.962 58.1093 44.2969 59.7744 42.2475 59.7744Z" fill="#898989"/>
<path d="M32.2907 52.2179C31.9334 54.6245 36.5242 58.4266 39.4836 57.3682C42.4498 56.3098 33.767 42.3419 32.2907 52.2179Z" fill="#898989"/>
<path d="M39.1263 46.8986C37.4613 47.4918 42.3487 55.3589 43.1778 49.7974C43.3801 48.4424 40.7914 46.3054 39.1263 46.8986Z" fill="#898989"/>
</svg>
