<svg width="50" height="58" viewBox="0 0 50 58" fill="none" xmlns="http://www.w3.org/2000/svg">
<g clip-path="url(#clip0_20101_59)">
<path d="M49.0489 49.627L45.4552 43.279C44.4791 44.05 43.4035 44.6966 42.2471 45.1815L45.8034 51.4673C46.2635 52.2818 46.3941 53.0154 46.1516 53.432C45.9091 53.8423 45.2065 54.091 44.2739 54.091H5.7263C4.7937 54.091 4.09114 53.8423 3.84866 53.4258C3.60618 53.0092 3.73053 52.2756 4.19683 51.4611L16.7248 29.3335C18.5776 26.0569 20.0324 20.5484 20.0324 16.7869V11.813C20.0324 9.096 19.3858 5.86919 18.1175 3.78015C18.4719 3.74907 18.9009 3.73042 19.4045 3.73042H30.5957C31.0931 3.73042 31.5221 3.74907 31.8827 3.78015C30.6268 5.86297 29.974 9.096 29.974 11.813V16.7869C29.974 17.8438 30.0921 18.422 30.2973 19.6717C31.404 19.0686 32.6039 18.6148 33.8661 18.3288C33.7604 17.5516 33.7044 17.4397 33.7044 16.7869V11.813C33.7044 8.53643 34.8298 5.68267 35.4453 5.22258C36.9872 4.06615 36.6825 2.70455 36.552 2.31286C36.0297 0.758518 34.0837 0 30.5957 0H19.4045C15.9166 0 13.9705 0.758518 13.4483 2.31286C13.3177 2.70455 13.013 4.06615 14.555 5.22258C15.1705 5.68267 16.2958 8.53643 16.2958 11.813V16.7869C16.2958 19.8893 15.0026 24.7948 13.4731 27.4994L0.945154 49.627C-0.192623 51.6352 -0.310752 53.7055 0.621851 55.3034C1.55446 56.9013 3.41345 57.8214 5.7263 57.8214H44.2739C46.5868 57.8214 48.4458 56.9075 49.3784 55.3034C50.311 53.6993 50.1866 51.6352 49.0489 49.627Z" fill="#898989"/>
<path d="M0.950645 49.627L4.54428 43.279C5.5204 44.05 6.59601 44.6966 7.75244 45.1815L4.19611 51.4673C3.73603 52.2818 3.60546 53.0154 3.84793 53.432C4.09041 53.8423 4.79298 54.091 5.72558 54.091H44.2732C45.2058 54.091 45.9084 53.8423 46.1509 53.4258C46.3933 53.0092 46.269 52.2756 45.8027 51.4611L33.2747 29.3335C31.4219 26.0569 29.9671 20.5484 29.9671 16.7869V11.813C29.9671 9.096 30.6137 5.86919 31.882 3.78015C31.5276 3.74907 31.0986 3.73042 30.595 3.73042H19.4038C18.9064 3.73042 18.4774 3.74907 18.1168 3.78015C19.3727 5.86297 20.0255 9.096 20.0255 11.813V16.7869C20.0255 17.8438 19.9074 18.422 19.7022 19.6717C18.5955 19.0686 17.3956 18.6148 16.1334 18.3288C16.2391 17.5516 16.2951 17.4397 16.2951 16.7869V11.813C16.2951 8.53643 15.1698 5.68267 14.5542 5.22258C13.0123 4.06615 13.317 2.70455 13.4475 2.31286C13.9698 0.758518 15.9158 0 19.4038 0H30.595C34.083 0 36.029 0.758518 36.5512 2.31286C36.6818 2.70455 36.9865 4.06615 35.4446 5.22258C34.829 5.68267 33.7037 8.53643 33.7037 11.813V16.7869C33.7037 19.8893 34.9969 24.7948 36.5264 27.4994L49.0544 49.627C50.1921 51.6352 50.3103 53.7055 49.3777 55.3034C48.4451 56.9013 46.5861 57.8214 44.2732 57.8214H5.72558C3.41272 57.8214 1.55373 56.9075 0.621128 55.3034C-0.311478 53.6993 -0.18713 51.6352 0.950645 49.627Z" fill="#898989"/>
<path d="M34.0001 39C28.3228 39 31.8015 39 23.8926 39H16.0191C15.6888 39 15.3768 39.1642 15.2177 39.4361L8.9226 49.7258C8.57389 50.2978 9.02049 51 9.72402 51H39.8782C40.5879 51 41.0283 50.2921 40.6796 49.7258L37.5001 44.5C37.5001 44.5 35.0001 41 34.0001 39Z" fill="#898989"/>
</g>
<defs>
<clipPath id="clip0_20101_59">
<rect width="50" height="57.8214" fill="white"/>
</clipPath>
</defs>
</svg>
