<svg width="34" height="59" viewBox="0 0 34 59" fill="none" xmlns="http://www.w3.org/2000/svg">
<path d="M12.0563 13.4695V0H22.1073V17.3572C22.1073 18.0162 23.0728 18.5982 24.4839 18.8069L27.9498 19.3121C32.703 20.0369 33.5447 20.2565 33.8913 21.2669C34.1884 22.1894 32.5545 23.0131 30.475 23.0131H28.2469H25.5485C23.6422 23.0131 22.1073 23.6939 22.1073 24.5396V24.9789V25.8355C22.1073 26.4944 23.0728 27.0765 24.4839 27.2851L27.9498 27.7903C33.3962 28.6359 33.6933 28.7238 33.9903 30.2833C34.1389 31.1728 32.5545 31.9306 30.5492 31.9306H28.2469H25.5485C23.6422 31.9306 22.1073 32.6115 22.1073 33.4571V33.6658C22.1073 35.401 22.2064 35.4449 27.9251 36.2466C33.1486 37.0483 33.6685 37.224 33.9656 38.5199C34.1389 39.2886 32.7773 39.9476 31.0443 39.9476H28.2469H25.5485C23.6422 39.9476 22.1073 40.6285 22.1073 41.4741V41.9134V42.77C22.1073 43.4289 23.0728 44.011 24.4839 44.2196L27.9498 44.7248C33.3962 45.5705 33.6933 45.6583 33.9903 47.2178C34.1389 48.1073 32.5545 48.8651 30.5492 48.8651H28.2469H25.5485C23.6422 48.8651 22.1073 49.546 22.1073 50.3916V54.6527V56.7174C22.1073 57.563 20.5725 58.2439 18.6662 58.2439H17.0818H15.4479C13.5912 58.2439 12.0811 57.5959 12.0068 56.7832L11.8335 57.2335L11.6354 55.103C11.5612 54.477 10.6699 53.9389 9.33311 53.7302L5.81772 53.1811C0.0990248 52.3794 0 52.3355 0 50.6003V50.3916C0 49.546 1.53489 48.8651 3.44112 48.8541H6.13955H8.44188C10.4719 48.8541 12.0563 48.0964 11.883 47.2068C11.5612 45.6473 11.2641 45.5595 5.84248 44.7138L2.3766 44.2087C0.965494 44 0 43.418 0 42.759V41.9024V41.4741C0 40.6285 1.53489 39.9476 3.44112 39.9366H6.13955H8.93701C10.6699 39.9366 12.0315 39.2777 11.8582 38.5089C11.5364 37.213 11.0413 37.0373 5.81772 36.2356C0.0990248 35.4339 0 35.39 0 33.6548V33.4461C0 32.6115 1.55964 31.9196 3.44112 31.9196H6.13955H8.46664C10.4967 31.9196 12.0811 31.1618 11.9078 30.2723C11.5859 28.7128 11.2889 28.625 5.86723 27.7793L2.40136 27.2741C0.99025 27.0655 0.0247563 26.4834 0.0247563 25.8245V24.9679V24.5396C0.0247563 23.6939 1.55964 23.0131 3.46588 23.0131H6.13955H8.36762C10.4719 23.0131 12.1058 22.1894 11.784 21.2669C11.4374 20.2565 10.5957 20.0479 5.84248 19.3121C0.123781 18.5104 0.0247563 18.4664 0.0247563 16.7313V16.5226C0.0247563 15.677 1.55964 14.9961 3.46588 14.9961H6.04053H8.61518C10.5214 14.9961 12.0563 14.3152 12.0563 13.4695Z" fill="#898989"/>
</svg>
