<svg width="29" height="29" viewBox="0 0 29 29" fill="none" xmlns="http://www.w3.org/2000/svg">
<g filter="url(#filter0_i_21116_39)">
<path d="M25.8095 12.5C25.8095 18.7461 20.7461 23.8095 14.5 23.8095C12.316 23.8095 10.2766 23.1904 8.54763 22.1182C7.78215 21.6435 4.41508 23.8523 3.78573 23.2143C3.19278 22.6132 5.3291 19.1736 4.88182 18.4524C3.80957 16.7235 3.19049 14.684 3.19049 12.5C3.19049 6.25392 8.25394 1.19048 14.5 1.19048C20.7461 1.19048 25.8095 6.25392 25.8095 12.5Z" fill="#68FF92"/>
</g>
<g filter="url(#filter1_d_21116_39)">
<path fill-rule="evenodd" clip-rule="evenodd" d="M23.3576 3.63311C21.0074 1.29149 17.882 0.00138026 14.5522 0C7.69112 0 2.10705 5.55694 2.10436 12.3872C2.10341 14.5707 2.67663 16.7018 3.76595 18.5805L2 25L8.59876 23.2773C10.4169 24.2642 12.4639 24.7844 14.5472 24.7851H14.5524C14.5528 24.7851 14.552 24.7851 14.5524 24.7851C21.4127 24.7851 26.9973 19.2276 27.0001 12.3971C27.0013 9.08704 25.7077 5.97464 23.3576 3.63311ZM14.5523 22.693H14.548C12.6916 22.6923 10.8707 22.1959 9.28215 21.2578L8.9044 21.0346L4.98859 22.0569L6.03378 18.2572L5.78778 17.8677C4.75212 16.2283 4.20516 14.3336 4.20594 12.388C4.2082 6.71092 8.84944 2.09222 14.5563 2.09222C17.3197 2.09317 19.9174 3.16563 21.8708 5.11189C23.8242 7.05806 24.8993 9.6451 24.8982 12.3963C24.896 18.0738 20.2547 22.693 14.5523 22.693ZM20.2273 14.9814C19.9163 14.8264 18.3871 14.0777 18.102 13.9743C17.8169 13.871 17.6096 13.8194 17.4023 14.1292C17.1949 14.4391 16.5989 15.1364 16.4174 15.343C16.236 15.5495 16.0545 15.5755 15.7436 15.4205C15.4326 15.2655 14.4304 14.9387 13.2424 13.8841C12.3178 13.0632 11.6936 12.0496 11.5122 11.7397C11.3308 11.4299 11.4929 11.2623 11.6485 11.108C11.7884 10.9693 11.9596 10.7465 12.1151 10.5657C12.2706 10.385 12.3224 10.2558 12.4261 10.0493C12.5297 9.84274 12.4779 9.66201 12.4002 9.50707C12.3224 9.35214 11.7004 7.8285 11.4412 7.20868C11.1887 6.60516 10.9323 6.68694 10.7414 6.67736C10.5602 6.66839 10.3527 6.66649 10.1453 6.66649C9.93798 6.66649 9.60105 6.74396 9.31596 7.05383C9.03087 7.36379 8.22742 8.11266 8.22742 9.63613C8.22742 11.1598 9.34188 12.6316 9.49738 12.8382C9.65289 13.0449 11.6906 16.1712 14.8106 17.5121C15.5527 17.831 16.132 18.0215 16.5836 18.1641C17.3287 18.3998 18.0068 18.3665 18.5427 18.2867C19.1403 18.1979 20.3829 17.538 20.6421 16.815C20.9012 16.0918 20.9012 15.472 20.8235 15.343C20.7456 15.2139 20.5383 15.1364 20.2273 14.9814Z" fill="white"/>
</g>
<defs>
<filter id="filter0_i_21116_39" x="3.19049" y="-2.80952" width="22.619" height="26.619" filterUnits="userSpaceOnUse" color-interpolation-filters="sRGB">
<feFlood flood-opacity="0" result="BackgroundImageFix"/>
<feBlend mode="normal" in="SourceGraphic" in2="BackgroundImageFix" result="shape"/>
<feColorMatrix in="SourceAlpha" type="matrix" values="0 0 0 0 0 0 0 0 0 0 0 0 0 0 0 0 0 0 127 0" result="hardAlpha"/>
<feOffset dy="-5"/>
<feGaussianBlur stdDeviation="2"/>
<feComposite in2="hardAlpha" operator="arithmetic" k2="-1" k3="1"/>
<feColorMatrix type="matrix" values="0 0 0 0 0 0 0 0 0 0 0 0 0 0 0 0 0 0 0.2 0"/>
<feBlend mode="normal" in2="shape" result="effect1_innerShadow_21116_39"/>
</filter>
<filter id="filter1_d_21116_39" x="0" y="0" width="29.0001" height="29" filterUnits="userSpaceOnUse" color-interpolation-filters="sRGB">
<feFlood flood-opacity="0" result="BackgroundImageFix"/>
<feColorMatrix in="SourceAlpha" type="matrix" values="0 0 0 0 0 0 0 0 0 0 0 0 0 0 0 0 0 0 127 0" result="hardAlpha"/>
<feOffset dy="2"/>
<feGaussianBlur stdDeviation="1"/>
<feComposite in2="hardAlpha" operator="out"/>
<feColorMatrix type="matrix" values="0 0 0 0 0 0 0 0 0 0 0 0 0 0 0 0 0 0 0.25 0"/>
<feBlend mode="normal" in2="BackgroundImageFix" result="effect1_dropShadow_21116_39"/>
<feBlend mode="normal" in="SourceGraphic" in2="effect1_dropShadow_21116_39" result="shape"/>
</filter>
</defs>
</svg>
