<svg width="39" height="42" viewBox="0 0 39 42" fill="none" xmlns="http://www.w3.org/2000/svg">
<path opacity="0.2" d="M38.7776 11.5954L28.2335 0.741675C28.0834 0.587285 27.8762 0.5 27.6599 0.5H11.9447C10.186 0.5 8.75512 1.91691 8.75512 3.65844V14.6923H2.38635C1.0705 14.6923 0 15.7525 0 17.0557V28.8867C0 30.1898 1.0705 31.25 2.38635 31.25H8.75512V38.3471C8.75512 40.0856 10.186 41.5 11.9447 41.5H35.8103C37.5692 41.5 39 40.0864 39 38.3488V12.1422C39 11.9383 38.9202 11.7423 38.7776 11.5954ZM27.8572 2.62856L36.5129 11.5384H27.8572V2.62856ZM2.38635 29.6731C1.94821 29.6731 1.59189 29.3204 1.59189 28.8867V17.0557C1.59189 16.622 1.94829 16.2693 2.38635 16.2693H23.8791C24.3171 16.2693 24.6734 16.622 24.6734 17.0557V28.8867C24.6734 29.3204 24.3171 29.6731 23.8791 29.6731H2.38635ZM37.408 38.3488C37.408 39.2168 36.6914 39.9231 35.8103 39.9231H11.9447C11.0637 39.9231 10.3469 39.2162 10.3469 38.3471V31.25H23.8791C25.1948 31.25 26.2654 30.1898 26.2654 28.8867V17.0557C26.2654 15.7525 25.1948 14.6923 23.8791 14.6923H10.3469V3.65844C10.3469 2.78631 11.0637 2.0769 11.9447 2.0769H26.2653V12.3269C26.2653 12.7624 26.6217 13.1153 27.0611 13.1153H37.408V38.3488Z" fill="#050505"/>
</svg>
