<svg width="47" height="44" viewBox="0 0 47 44" fill="none" xmlns="http://www.w3.org/2000/svg">
<g clip-path="url(#clip0_21125_126)">
<path d="M11.6372 10.4214L23.1583 1.44814C23.417 1.24502 23.739 1.13633 24.0697 1.1405C24.4005 1.14467 24.7196 1.26145 24.9729 1.47103L35.8538 10.4214V33.6309L25.0127 42.4113C24.6563 42.7006 24.2089 42.8588 23.7471 42.8588C23.2854 42.8588 22.838 42.7006 22.4816 42.4113L11.6405 33.6276L11.6372 10.4214Z" fill="white"/>
<path d="M23.7455 44C23.0192 43.9982 22.316 43.7487 21.7551 43.2939L10.4762 34.1703V9.86894L22.4385 0.549177C22.9076 0.186333 23.4886 -0.0073255 24.0849 0.000405944C24.6812 0.00813739 25.2568 0.216795 25.716 0.591675L37.0149 9.88855V34.1703L25.7359 43.2939C25.1753 43.7489 24.4719 43.9985 23.7455 44ZM12.7983 33.0883L23.2148 41.5254C23.3641 41.6457 23.551 41.7114 23.7439 41.7114C23.9367 41.7114 24.1237 41.6457 24.273 41.5254L34.6927 33.0883V10.9575L24.2299 2.35037C24.1802 2.31055 24.1181 2.28881 24.054 2.28881C23.99 2.28881 23.9279 2.31055 23.8782 2.35037L12.7983 10.9836V33.0883Z" fill="#009A67"/>
<path d="M47 21.307H0V23.5952H47V21.307Z" fill="#009A67"/>
<path d="M12.6228 23.2283L10.5514 24.2625L19.282 41.2424L21.3534 40.2082L12.6228 23.2283Z" fill="#009A67"/>
<path d="M18.4579 21.9488L16.3806 22.9716L25.5768 41.1076L27.6541 40.0848L18.4579 21.9488Z" fill="#009A67"/>
<path d="M24.7811 21.9218L22.7109 22.9585L30.4872 38.0366L32.5573 36.9998L24.7811 21.9218Z" fill="#009A67"/>
<path d="M31.1217 21.6346L29.0684 22.7032L34.8252 33.4446L36.8786 32.376L31.1217 21.6346Z" fill="#009A67"/>
</g>
<defs>
<clipPath id="clip0_21125_126">
<rect width="47" height="44" fill="white"/>
</clipPath>
</defs>
</svg>
