<svg width="68" height="26" viewBox="0 0 68 26" fill="none" xmlns="http://www.w3.org/2000/svg">
<g clip-path="url(#clip0_21125_100)">
<path d="M25.7049 1.1282H1.16602V24.8718H25.7049V1.1282Z" fill="white"/>
<path d="M26.8709 26H0V0H26.8709V26ZM2.33196 23.7436H24.5389V2.25638H2.33196V23.7436Z" fill="#009A67"/>
<path d="M61.8137 12.2973V24.8718H37.2748V1.1282H61.8137" fill="white"/>
<path d="M62.9796 26H36.1088V0H61.8136V2.25638H38.4407V23.7436H60.6477V12.2973H62.9796V26Z" fill="#009A67"/>
<path d="M43.2046 11.0756L49.5442 17.5708L67.1905 1.10242" fill="white"/>
<path d="M49.5042 19.176L42.3584 11.8525L44.0541 10.302L49.5808 15.9688L66.3809 0.2901L68 1.9147L49.5042 19.176Z" fill="#009A67"/>
<path d="M9.64905 8.41444L8.06372 10.0692L17.2451 18.3043L18.8304 16.6495L9.64905 8.41444Z" fill="#009A67"/>
<path d="M17.2195 8.60361L8.03821 16.8387L9.62353 18.4935L18.8049 10.2584L17.2195 8.60361Z" fill="#009A67"/>
</g>
<defs>
<clipPath id="clip0_21125_100">
<rect width="68" height="26" fill="white"/>
</clipPath>
</defs>
</svg>
