<svg width="12" height="10" viewBox="0 0 12 10" fill="none" xmlns="http://www.w3.org/2000/svg">
<path d="M9.82362 0.870033L4.35014 6.35627L2.24495 4.25109C2.13057 4.1175 1.98983 4.00906 1.83153 3.9325C1.67325 3.85595 1.50082 3.81283 1.32511 3.80607C1.1494 3.7993 0.974184 3.8289 0.810464 3.89308C0.646732 3.95713 0.498029 4.05448 0.373696 4.17875C0.249362 4.30314 0.152064 4.45191 0.0879136 4.61561C0.0237756 4.7793 -0.00583682 4.95448 0.000950808 5.13029C0.00773844 5.30598 0.0507724 5.47835 0.127363 5.63668C0.203941 5.79489 0.312415 5.93575 0.445973 6.05007L3.44427 9.06112C3.56349 9.17939 3.70488 9.27291 3.86033 9.33645C4.01573 9.39986 4.18223 9.43214 4.35014 9.43112C4.6848 9.42972 5.00555 9.29677 5.24325 9.06112L11.6226 2.68177C11.7421 2.56311 11.8371 2.422 11.9019 2.26657C11.9667 2.1111 12 1.94433 12 1.7759C12 1.60747 11.9667 1.4407 11.9019 1.28523C11.8371 1.12975 11.7421 0.988638 11.6226 0.870033C11.3835 0.632402 11.0602 0.499023 10.7231 0.499023C10.386 0.499023 10.0627 0.632402 9.82362 0.870033Z" fill="#009A67"/>
</svg>
