<svg width="115" height="82" viewBox="0 0 115 82" fill="none" xmlns="http://www.w3.org/2000/svg">
<g clip-path="url(#clip0_21126_1009)">
<path d="M2.30701 55.4812L34.5075 47.0911L112.178 50.1385L79.6141 67.0094L2.30701 55.4812Z" fill="#009A67"/>
<path d="M113.645 50.657L113.386 59.7344L80.497 81.2996L0.995605 63.093L1.17738 56.6221L79.5751 68.306L113.645 50.657Z" fill="#009A67" stroke="white" stroke-miterlimit="10"/>
<path d="M2.30697 55.4811L2.28101 54.1843" stroke="#009A67" stroke-miterlimit="10"/>
<path d="M2.25504 51.6037L1.99536 32.23" stroke="#009A67" stroke-miterlimit="10" stroke-dasharray="1.99 1.99"/>
<path d="M1.98239 30.9464L1.95642 29.6496L3.21587 29.3384" stroke="#009A67" stroke-miterlimit="10"/>
<path d="M5.79968 28.7158L34.7931 21.6484L109.828 21.8559" stroke="#009A67" stroke-miterlimit="10" stroke-dasharray="2.04 2.04"/>
<path d="M111.152 21.8689H112.451L112.438 23.1657" stroke="#009A67" stroke-miterlimit="10"/>
<path d="M112.412 26.0186L112.204 47.4152" stroke="#009A67" stroke-miterlimit="10" stroke-dasharray="2.2 2.2"/>
<path d="M112.191 48.8418L112.178 50.1386" stroke="#009A67" stroke-miterlimit="10"/>
<path d="M1.95642 29.6494L79.8997 34.4734L79.6141 67.0093" stroke="#009A67" stroke-miterlimit="10" stroke-dasharray="2 2"/>
<path d="M79.8997 34.4735L112.451 21.8689" stroke="#009A67" stroke-miterlimit="10" stroke-dasharray="2 2"/>
<path d="M34.7931 21.6484L34.5074 47.091" stroke="#009A67" stroke-miterlimit="10" stroke-dasharray="2 2"/>
</g>
<defs>
<clipPath id="clip0_21126_1009">
<rect width="114" height="61" fill="white" transform="translate(0.333374 21)"/>
</clipPath>
</defs>
</svg>
