<svg width="131" height="81" viewBox="0 0 131 81" fill="none" xmlns="http://www.w3.org/2000/svg">
<g clip-path="url(#clip0_21126_998)">
<path d="M131 71.1271C121.115 65.5685 115.043 56.312 107.75 48.3579C105.477 49.3928 103.37 50.3464 101.689 51.1023C99.2979 48.3113 97.3446 45.346 94.7284 43.1249C90.8574 39.8455 91.6624 39.5548 86.6904 42.9156C84.595 44.3343 82.7128 46.0437 80.061 48.1485C77.6934 45.532 75.456 42.8342 72.9701 40.3805C70.4012 37.857 67.6074 35.5545 64.8491 33.2287C64.5532 32.9729 63.6298 32.9729 63.3457 33.2287C60.0547 36.2522 56.7756 39.299 53.5911 42.4388C50.1936 45.7763 46.9026 49.2068 43.4933 52.6722C42.8422 51.9628 42.2621 51.3116 41.6584 50.672C39.3618 48.2299 37.3256 47.8113 34.7568 49.858C30.4714 53.2652 26.3044 56.8236 22.1374 60.3821C21.6757 60.6495 9.02084 70.8713 5.43391 73.2784C3.70555 74.4413 1.68124 75.1972 -0.0234375 76.0461C2.46256 77.0346 4.97222 78.023 7.10308 78.8719C10.0389 74.6739 27.2278 57.3237 32.5194 53.5094C32.8745 53.2536 33.2652 53.0443 33.6322 52.8233C30.8739 59.2192 26.7187 64.5336 21.7823 69.7898H27.9144C25.31 73.511 22.8003 77.1043 20.0894 81C20.8234 81 21.0365 81.0232 21.2377 81C28.9561 80.1976 36.7101 79.6162 44.393 78.5463C52.3481 77.4299 60.1139 75.3949 67.4772 72.0923C74.7694 68.8246 80.9252 64.2545 85.1396 57.3935C86.1695 55.7189 87.5072 54.242 85.7788 52.614C85.0804 51.9628 84.0623 50.9395 83.5296 50.1022C82.9969 49.2765 83.0087 48.6021 83.7782 47.916C85.3882 46.4972 86.9745 45.0436 88.5726 43.6017C88.8094 43.7994 88.7383 43.7412 88.9751 43.9389C88.182 45.1134 87.3888 46.2763 86.6193 47.4043C86.3589 47.788 86.3944 48.2997 86.7022 48.6369C88.6673 50.8232 90.5851 52.9978 92.5857 55.091C93.3078 55.8468 93.296 56.405 92.7988 57.2307C90.9639 60.2193 89.1764 63.2544 87.2112 66.5454C94.0891 66.15 100.813 65.7662 107.703 65.3708C107.514 64.4056 106.543 61.0449 106.235 60.2076C105.146 57.2772 104.862 56.812 103.796 53.8816C103.619 53.3931 103.678 52.4745 104.009 52.207C104.72 51.6372 105.655 51.2999 106.543 50.9743C107.407 50.6604 107.892 50.9976 108.318 51.9046C109.313 54.0095 109.206 55.091 109.301 56.7074C109.467 59.5448 109.348 62.3939 109.348 64.8475C116.759 66.9989 123.886 69.0688 131 71.1271ZM17.6271 65.2546C17.6508 65.2778 17.6745 65.2894 17.6981 65.3127C17.6508 65.3127 17.6271 65.2894 17.6271 65.2546Z" fill="#009A67"/>
<path d="M78.7349 10.4247C78.7349 10.4247 71.6084 13.704 68.8265 10.8666C66.2458 8.23849 61.3922 11.6109 60.7174 12.1109L60.6345 11.669L59.0719 11.9597L62.9785 32.4032L64.5411 32.1125L62.576 21.821C63.452 20.8674 66.1629 18.2974 68.2346 20.0534C70.7442 22.1815 77.9418 19.9836 77.9418 19.9836L78.7349 10.4247Z" fill="#009A67"/>
<path d="M64.3398 35.4614C64.3398 35.4614 57.8881 39.4966 57.6987 43.7179C57.5093 47.9392 75.219 49.8579 68.8975 58.3121C62.5759 66.7662 57.8881 70.6038 33.845 77.5113" stroke="white" stroke-miterlimit="10" stroke-dasharray="2 2"/>
</g>
<defs>
<clipPath id="clip0_21126_998">
<rect width="131" height="81" fill="white"/>
</clipPath>
</defs>
</svg>
