<svg width="107" height="76" viewBox="0 0 107 76" fill="none" xmlns="http://www.w3.org/2000/svg">
<path d="M0.133667 71.1259V58.1003H9.78058V60.1099H2.60475V71.1259H0.133667Z" fill="#222222"/>
<path d="M11.6625 71.1259V58.1003H21.3094V60.1099H14.1336V63.4863H21.1599V65.4959H14.1336V69.1082H21.3094V71.1178H11.6625V71.1259Z" fill="#222222"/>
<path d="M22.9539 64.6253C22.9539 60.7364 25.9262 57.8888 30.1561 57.8888C34.3771 57.8888 37.3495 60.7364 37.3495 64.6253C37.3495 68.5143 34.3771 71.3618 30.1561 71.3618C25.935 71.3618 22.9539 68.5061 22.9539 64.6253ZM34.8168 64.6253C34.8168 61.9323 32.9789 59.9228 30.1561 59.9228C27.3068 59.9228 25.4953 61.9323 25.4953 64.6253C25.4953 67.302 27.3068 69.3279 30.1561 69.3279C32.9789 69.3279 34.8168 67.2939 34.8168 64.6253Z" fill="#222222"/>
<path d="M42.4323 71.1259V60.1099H38.1672V58.1003H49.1684V60.1099H44.9034V71.1259H42.4323Z" fill="#222222"/>
<path d="M49.9512 64.6253C49.9512 60.7364 52.9235 57.8888 57.1534 57.8888C61.3745 57.8888 64.3468 60.7364 64.3468 64.6253C64.3468 68.5143 61.3745 71.3618 57.1534 71.3618C52.9235 71.3618 49.9512 68.5061 49.9512 64.6253ZM61.8054 64.6253C61.8054 61.9323 59.9674 59.9228 57.1446 59.9228C54.2954 59.9228 52.4838 61.9323 52.4838 64.6253C52.4838 67.302 54.2954 69.3279 57.1446 69.3279C59.9762 69.3279 61.8054 67.2939 61.8054 64.6253Z" fill="#222222"/>
<path d="M68.4711 61.5581C68.4711 63.4293 69.4648 64.2511 71.3203 64.2511C72.4195 64.2511 73.4484 64.0558 74.2575 63.7629V58.1003H76.7286V71.1259H74.2575V65.7725C73.4308 66.0491 72.2349 66.2606 71.0741 66.2606C67.6093 66.2606 66.0088 64.3894 66.0088 61.5581V58.1003H68.4799V61.5581H68.4711Z" fill="#222222"/>
<path d="M87.9759 71.1259L83.2448 65.6423L82.0225 66.9685V71.1259H79.5514V58.1003H82.0225V64.308L87.5275 58.1003H90.5877L84.8717 64.2511L91.0098 71.1259H87.9759Z" fill="#222222"/>
<path d="M103.233 71.1259L102.196 68.6282H95.741L94.7033 71.1259H91.8981L97.4294 58.1003H100.507L106.039 71.1259H103.233ZM98.9684 60.4028L96.4357 66.6105H101.501L98.9684 60.4028Z" fill="#222222"/>
<path d="M73.1706 24.4212C73.1706 32.8901 66.0519 39.7503 57.2639 39.7503V9.09211C66.0519 9.09211 73.1706 15.9523 73.1706 24.4212Z" fill="#009A67"/>
<path d="M57.264 48.7674C43.6168 48.7674 32.5203 37.8491 32.5203 24.4212C32.5203 10.9932 43.6168 0.0749969 57.264 0.0749969V9.47273C48.8857 9.47273 42.0714 16.1776 42.0714 24.4212C42.0714 32.6648 48.8857 39.3696 57.264 39.3696V48.7674Z" fill="#009A67"/>
</svg>
