<svg width="160" height="27" viewBox="0 0 160 27" fill="none" xmlns="http://www.w3.org/2000/svg">
<path d="M35.2896 20.712V4.80971H46.6495V7.26308H38.1994V20.712H35.2896Z" fill="#222222"/>
<path d="M48.8655 20.712V4.80971H60.2254V7.26308H51.7754V11.3852H60.0493V13.8385H51.7754V18.2486H60.2254V20.702H48.8655V20.712Z" fill="#222222"/>
<path d="M62.1619 12.7757C62.1619 8.0279 65.662 4.55145 70.643 4.55145C75.6136 4.55145 79.1137 8.0279 79.1137 12.7757C79.1137 17.5236 75.6136 21 70.643 21C65.6724 21 62.1619 17.5136 62.1619 12.7757ZM76.1313 12.7757C76.1313 9.488 73.9671 7.03463 70.643 7.03463C67.2878 7.03463 65.1546 9.488 65.1546 12.7757C65.1546 16.0436 67.2878 18.5168 70.643 18.5168C73.9671 18.5168 76.1313 16.0337 76.1313 12.7757Z" fill="#222222"/>
<path d="M85.0992 20.712V7.26308H80.0768V4.80971H93.0314V7.26308H88.009V20.712H85.0992Z" fill="#222222"/>
<path d="M93.9531 12.7757C93.9531 8.0279 97.4533 4.55145 102.434 4.55145C107.405 4.55145 110.905 8.0279 110.905 12.7757C110.905 17.5236 107.405 21 102.434 21C97.4533 21 93.9531 17.5136 93.9531 12.7757ZM107.912 12.7757C107.912 9.488 105.748 7.03463 102.424 7.03463C99.0687 7.03463 96.9355 9.488 96.9355 12.7757C96.9355 16.0436 99.0687 18.5168 102.424 18.5168C105.758 18.5168 107.912 16.0337 107.912 12.7757Z" fill="#222222"/>
<path d="M115.762 9.0311C115.762 11.3156 116.932 12.3188 119.117 12.3188C120.411 12.3188 121.623 12.0804 122.575 11.7229V4.80971H125.485V20.712H122.575V14.1762C121.602 14.514 120.194 14.7722 118.827 14.7722C114.747 14.7722 112.862 12.4877 112.862 9.0311V4.80971H115.772V9.0311H115.762Z" fill="#222222"/>
<path d="M138.73 20.712L133.159 14.0173L131.719 15.6363V20.712H128.809V4.80971H131.719V12.3884L138.202 4.80971H141.805L135.074 12.3188L142.302 20.712H138.73Z" fill="#222222"/>
<path d="M156.697 20.712L155.475 17.6626H147.874L146.652 20.712H143.349L149.862 4.80971H153.486L160 20.712H156.697ZM151.674 7.62066L148.692 15.1993H154.657L151.674 7.62066Z" fill="#222222"/>
<path d="M23 13.5C23 18.196 18.9723 22 14 22V5C18.9723 5 23 8.80398 23 13.5Z" fill="#009A67"/>
<path d="M14 27C6.27841 27 0 20.9458 0 13.5C0 6.05418 6.27841 0 14 0V5.21106C9.25959 5.21106 5.40406 8.92889 5.40406 13.5C5.40406 18.0711 9.25959 21.7889 14 21.7889V27Z" fill="#009A67"/>
</svg>
