<svg width="20" height="20" viewBox="0 0 20 20" fill="none" xmlns="http://www.w3.org/2000/svg">
<path fill-rule="evenodd" clip-rule="evenodd" d="M17.0861 2.90649C15.2059 1.0332 12.7056 0.00110421 10.0417 0C4.5529 0 0.0856408 4.44555 0.0834911 9.9098C0.0827283 11.6565 0.541305 13.3614 1.41276 14.8644L0 20L5.27901 18.6218C6.73352 19.4114 8.37109 19.8275 10.0378 19.8281H10.0419C10.0422 19.8281 10.0416 19.8281 10.042 19.8281C15.5302 19.8281 19.9979 15.3821 20.0001 9.91767C20.001 7.26963 18.9661 4.77971 17.0861 2.90649ZM10.0418 18.1544H10.0384C8.55326 18.1538 7.09653 17.7567 5.82572 17.0062L5.52352 16.8277L2.39087 17.6455L3.22703 14.6058L3.03023 14.2941C2.2017 12.9827 1.76413 11.4669 1.76475 9.91042C1.76656 5.36874 5.47955 1.67377 10.0451 1.67377C12.2558 1.67453 14.3339 2.53251 15.8967 4.08951C17.4593 5.64645 18.3194 7.71608 18.3186 9.91705C18.3168 14.4591 14.6038 18.1544 10.0418 18.1544ZM14.5818 11.9851C14.333 11.8611 13.1097 11.2622 12.8816 11.1794C12.6535 11.0968 12.4877 11.0556 12.3218 11.3034C12.1559 11.5513 11.6791 12.1091 11.5339 12.2744C11.3888 12.4396 11.2436 12.4604 10.9949 12.3364C10.7461 12.2124 9.94432 11.9509 8.99395 11.1072C8.25425 10.4506 7.75489 9.63968 7.60976 9.39179C7.46462 9.14389 7.59429 9.00987 7.71883 8.8864C7.83076 8.77543 7.96764 8.59717 8.09205 8.45259C8.21645 8.30801 8.25792 8.20462 8.34086 8.03948C8.42379 7.87419 8.38233 7.72961 8.32012 7.60566C8.25792 7.48171 7.7603 6.2628 7.55296 5.76694C7.35096 5.28413 7.14584 5.34955 6.99314 5.34189C6.84814 5.33471 6.68213 5.3332 6.51626 5.3332C6.35039 5.3332 6.08084 5.39517 5.85277 5.64306C5.62469 5.89103 4.98194 6.49013 4.98194 7.7089C4.98194 8.92781 5.8735 10.1053 5.99791 10.2705C6.12231 10.4359 7.75247 12.937 10.2485 14.0097C10.8421 14.2648 11.3056 14.4172 11.6669 14.5313C12.263 14.7198 12.8054 14.6932 13.2342 14.6294C13.7122 14.5583 14.7063 14.0304 14.9137 13.452C15.121 12.8734 15.121 12.3776 15.0588 12.2744C14.9965 12.1711 14.8306 12.1091 14.5818 11.9851Z" fill="#009A67"/>
</svg>
